G04 #@! TF.GenerationSoftware,KiCad,Pcbnew,8.0.1*
G04 #@! TF.CreationDate,2024-07-20T17:57:27+02:00*
G04 #@! TF.ProjectId,midi_mic_muter,6d696469-5f6d-4696-935f-6d757465722e,rev?*
G04 #@! TF.SameCoordinates,Original*
G04 #@! TF.FileFunction,Copper,L1,Top*
G04 #@! TF.FilePolarity,Positive*
%FSLAX46Y46*%
G04 Gerber Fmt 4.6, Leading zero omitted, Abs format (unit mm)*
G04 Created by KiCad (PCBNEW 8.0.1) date 2024-07-20 17:57:27*
%MOMM*%
%LPD*%
G01*
G04 APERTURE LIST*
G04 Aperture macros list*
%AMRoundRect*
0 Rectangle with rounded corners*
0 $1 Rounding radius*
0 $2 $3 $4 $5 $6 $7 $8 $9 X,Y pos of 4 corners*
0 Add a 4 corners polygon primitive as box body*
4,1,4,$2,$3,$4,$5,$6,$7,$8,$9,$2,$3,0*
0 Add four circle primitives for the rounded corners*
1,1,$1+$1,$2,$3*
1,1,$1+$1,$4,$5*
1,1,$1+$1,$6,$7*
1,1,$1+$1,$8,$9*
0 Add four rect primitives between the rounded corners*
20,1,$1+$1,$2,$3,$4,$5,0*
20,1,$1+$1,$4,$5,$6,$7,0*
20,1,$1+$1,$6,$7,$8,$9,0*
20,1,$1+$1,$8,$9,$2,$3,0*%
G04 Aperture macros list end*
G04 #@! TA.AperFunction,ComponentPad*
%ADD10R,1.700000X1.700000*%
G04 #@! TD*
G04 #@! TA.AperFunction,ComponentPad*
%ADD11O,1.700000X1.700000*%
G04 #@! TD*
G04 #@! TA.AperFunction,BGAPad,CuDef*
%ADD12C,0.225000*%
G04 #@! TD*
G04 #@! TA.AperFunction,SMDPad,CuDef*
%ADD13RoundRect,0.200000X0.200000X0.275000X-0.200000X0.275000X-0.200000X-0.275000X0.200000X-0.275000X0*%
G04 #@! TD*
G04 #@! TA.AperFunction,SMDPad,CuDef*
%ADD14RoundRect,0.200000X-0.275000X0.200000X-0.275000X-0.200000X0.275000X-0.200000X0.275000X0.200000X0*%
G04 #@! TD*
G04 #@! TA.AperFunction,SMDPad,CuDef*
%ADD15RoundRect,0.218750X-0.218750X-0.256250X0.218750X-0.256250X0.218750X0.256250X-0.218750X0.256250X0*%
G04 #@! TD*
G04 #@! TA.AperFunction,SMDPad,CuDef*
%ADD16RoundRect,0.225000X0.250000X-0.225000X0.250000X0.225000X-0.250000X0.225000X-0.250000X-0.225000X0*%
G04 #@! TD*
G04 #@! TA.AperFunction,SMDPad,CuDef*
%ADD17RoundRect,0.200000X0.275000X-0.200000X0.275000X0.200000X-0.275000X0.200000X-0.275000X-0.200000X0*%
G04 #@! TD*
G04 #@! TA.AperFunction,SMDPad,CuDef*
%ADD18R,0.650000X1.700000*%
G04 #@! TD*
G04 #@! TA.AperFunction,SMDPad,CuDef*
%ADD19RoundRect,0.250000X0.250000X0.475000X-0.250000X0.475000X-0.250000X-0.475000X0.250000X-0.475000X0*%
G04 #@! TD*
G04 #@! TA.AperFunction,ViaPad*
%ADD20C,0.600000*%
G04 #@! TD*
G04 #@! TA.AperFunction,Conductor*
%ADD21C,0.127000*%
G04 #@! TD*
G04 #@! TA.AperFunction,Conductor*
%ADD22C,0.500000*%
G04 #@! TD*
G04 #@! TA.AperFunction,Conductor*
%ADD23C,0.300000*%
G04 #@! TD*
G04 APERTURE END LIST*
D10*
X36200000Y-44500000D03*
D11*
X33660000Y-44500000D03*
X31120000Y-44500000D03*
D10*
X31120000Y-50400000D03*
D11*
X33660000Y-50400000D03*
X36200000Y-50400000D03*
D10*
X50300000Y-49900000D03*
D11*
X50300000Y-47360000D03*
X50300000Y-44820000D03*
D12*
X47200000Y-49000000D03*
X47200000Y-49500000D03*
X47200000Y-50000000D03*
X46700000Y-49000000D03*
X46700000Y-50000000D03*
X46200000Y-49000000D03*
X46200000Y-50000000D03*
X45700000Y-49000000D03*
X45700000Y-49500000D03*
X45700000Y-50000000D03*
D13*
X36200000Y-47400000D03*
X34550000Y-47400000D03*
D14*
X47700000Y-45475000D03*
X47700000Y-47125000D03*
D15*
X31587500Y-47400000D03*
X33162500Y-47400000D03*
D16*
X46200000Y-47075000D03*
X46200000Y-45525000D03*
D17*
X44700000Y-47125000D03*
X44700000Y-45475000D03*
D18*
X39090000Y-51100000D03*
X40360000Y-51100000D03*
X41630000Y-51100000D03*
X42900000Y-51100000D03*
X42900000Y-43800000D03*
X41630000Y-43800000D03*
X40360000Y-43800000D03*
X39090000Y-43800000D03*
D19*
X47150000Y-43700000D03*
X45250000Y-43700000D03*
D20*
X43500000Y-45300000D03*
X41800000Y-45300000D03*
X43800000Y-50900000D03*
X45100000Y-49500000D03*
X44200000Y-43400000D03*
X48300000Y-44200000D03*
X47900000Y-48900000D03*
X46000000Y-48200000D03*
D21*
X43500000Y-44400000D02*
X43500000Y-45300000D01*
X42900000Y-43800000D02*
X43500000Y-44400000D01*
X47650000Y-47075000D02*
X47700000Y-47125000D01*
X35086500Y-46477470D02*
X35536500Y-46927470D01*
X35536500Y-47872530D02*
X35802470Y-48138500D01*
X45586500Y-46461500D02*
X46200000Y-47075000D01*
X38961500Y-48138500D02*
X41800000Y-45300000D01*
X35802470Y-48138500D02*
X38961500Y-48138500D01*
X32233500Y-43386500D02*
X35086500Y-43386500D01*
X44550470Y-46461500D02*
X45586500Y-46461500D01*
X43500000Y-45300000D02*
X43500000Y-45411030D01*
X43500000Y-45411030D02*
X44550470Y-46461500D01*
X31120000Y-44500000D02*
X32233500Y-43386500D01*
X35086500Y-43386500D02*
X35086500Y-46477470D01*
X35536500Y-46927470D02*
X35536500Y-47872530D01*
X46200000Y-47075000D02*
X47650000Y-47075000D01*
D22*
X44700000Y-45475000D02*
X46150000Y-45475000D01*
X44500000Y-43700000D02*
X44200000Y-43400000D01*
X44700000Y-44250000D02*
X45250000Y-43700000D01*
X43600000Y-51100000D02*
X43800000Y-50900000D01*
D23*
X45700000Y-49500000D02*
X45100000Y-49500000D01*
D22*
X31587500Y-47400000D02*
X31587500Y-46572500D01*
X31587500Y-46572500D02*
X33660000Y-44500000D01*
X44700000Y-45475000D02*
X44700000Y-44250000D01*
X42900000Y-51100000D02*
X43600000Y-51100000D01*
X46150000Y-45475000D02*
X46200000Y-45525000D01*
X45250000Y-43700000D02*
X44500000Y-43700000D01*
X47150000Y-43700000D02*
X47150000Y-44925000D01*
D23*
X47900000Y-48959099D02*
X47900000Y-48900000D01*
D22*
X47150000Y-43700000D02*
X47800000Y-43700000D01*
D23*
X47200000Y-49500000D02*
X47359099Y-49500000D01*
D22*
X47150000Y-44925000D02*
X47700000Y-45475000D01*
D23*
X47359099Y-49500000D02*
X47900000Y-48959099D01*
D22*
X47800000Y-43700000D02*
X48300000Y-44200000D01*
X47150000Y-43700000D02*
X47150000Y-43900000D01*
X36200000Y-44500000D02*
X38390000Y-44500000D01*
X38390000Y-44500000D02*
X39090000Y-43800000D01*
D21*
X33162500Y-47400000D02*
X34550000Y-47400000D01*
X40360000Y-43800000D02*
X40360000Y-44325000D01*
X40360000Y-44325000D02*
X37285000Y-47400000D01*
X37285000Y-47400000D02*
X36200000Y-47400000D01*
X46200000Y-48400000D02*
X46000000Y-48200000D01*
X46200000Y-49000000D02*
X46200000Y-48400000D01*
X43586500Y-49286500D02*
X44739500Y-50439500D01*
X45984500Y-50439500D02*
X46200000Y-50224000D01*
X34773500Y-49286500D02*
X43586500Y-49286500D01*
X33660000Y-50400000D02*
X34773500Y-49286500D01*
X44739500Y-50439500D02*
X45984500Y-50439500D01*
X46200000Y-50224000D02*
X46200000Y-50000000D01*
X46700000Y-50000000D02*
X46700000Y-50159099D01*
X47355745Y-50376000D02*
X50300000Y-47431745D01*
X50300000Y-47431745D02*
X50300000Y-47360000D01*
X46700000Y-50159099D02*
X46916901Y-50376000D01*
X46916901Y-50376000D02*
X47355745Y-50376000D01*
X45700000Y-50000000D02*
X45587500Y-50112500D01*
X44430000Y-47125000D02*
X44700000Y-47125000D01*
X44536500Y-49733410D02*
X44536500Y-49266590D01*
X41630000Y-43800000D02*
X41630000Y-44325000D01*
X45636500Y-48936500D02*
X45700000Y-49000000D01*
X44536500Y-49266590D02*
X44866590Y-48936500D01*
X45587500Y-50112500D02*
X44915590Y-50112500D01*
X44866590Y-48936500D02*
X45636500Y-48936500D01*
X44700000Y-47125000D02*
X44700000Y-48000000D01*
X44700000Y-48000000D02*
X45700000Y-49000000D01*
X44915590Y-50112500D02*
X44536500Y-49733410D01*
X41630000Y-44325000D02*
X44430000Y-47125000D01*
X47376000Y-48624000D02*
X50300000Y-45700000D01*
X46700000Y-48840901D02*
X46916901Y-48624000D01*
X46916901Y-48624000D02*
X47376000Y-48624000D01*
X50300000Y-45700000D02*
X50300000Y-44820000D01*
X46700000Y-49000000D02*
X46700000Y-48840901D01*
M02*
