%TF.GenerationSoftware,KiCad,Pcbnew,8.0.1*%
%TF.CreationDate,2024-07-20T17:57:33+02:00*%
%TF.ProjectId,midi_mic_muter,6d696469-5f6d-4696-935f-6d757465722e,rev?*%
%TF.SameCoordinates,Original*%
%TF.FileFunction,Drillmap*%
%TF.FilePolarity,Positive*%
%FSLAX45Y45*%
G04 Gerber Fmt 4.5, Leading zero omitted, Abs format (unit mm)*
G04 Created by KiCad (PCBNEW 8.0.1) date 2024-07-20 17:57:33*
%MOMM*%
%LPD*%
G01*
G04 APERTURE LIST*
%ADD10C,0.050000*%
%ADD11C,0.200000*%
G04 APERTURE END LIST*
D10*
X2910000Y-4260000D02*
X5225000Y-4260000D01*
X5225000Y-5230000D01*
X2910000Y-5230000D01*
X2910000Y-4260000D01*
D11*
X3168277Y-5543984D02*
X3168277Y-5343984D01*
X3168277Y-5343984D02*
X3215896Y-5343984D01*
X3215896Y-5343984D02*
X3244467Y-5353508D01*
X3244467Y-5353508D02*
X3263515Y-5372555D01*
X3263515Y-5372555D02*
X3273039Y-5391603D01*
X3273039Y-5391603D02*
X3282562Y-5429698D01*
X3282562Y-5429698D02*
X3282562Y-5458270D01*
X3282562Y-5458270D02*
X3273039Y-5496365D01*
X3273039Y-5496365D02*
X3263515Y-5515412D01*
X3263515Y-5515412D02*
X3244467Y-5534460D01*
X3244467Y-5534460D02*
X3215896Y-5543984D01*
X3215896Y-5543984D02*
X3168277Y-5543984D01*
X3368277Y-5543984D02*
X3368277Y-5410650D01*
X3368277Y-5448746D02*
X3377801Y-5429698D01*
X3377801Y-5429698D02*
X3387324Y-5420174D01*
X3387324Y-5420174D02*
X3406372Y-5410650D01*
X3406372Y-5410650D02*
X3425420Y-5410650D01*
X3492086Y-5543984D02*
X3492086Y-5410650D01*
X3492086Y-5343984D02*
X3482562Y-5353508D01*
X3482562Y-5353508D02*
X3492086Y-5363031D01*
X3492086Y-5363031D02*
X3501610Y-5353508D01*
X3501610Y-5353508D02*
X3492086Y-5343984D01*
X3492086Y-5343984D02*
X3492086Y-5363031D01*
X3615896Y-5543984D02*
X3596848Y-5534460D01*
X3596848Y-5534460D02*
X3587324Y-5515412D01*
X3587324Y-5515412D02*
X3587324Y-5343984D01*
X3720658Y-5543984D02*
X3701610Y-5534460D01*
X3701610Y-5534460D02*
X3692086Y-5515412D01*
X3692086Y-5515412D02*
X3692086Y-5343984D01*
X3949229Y-5543984D02*
X3949229Y-5343984D01*
X3949229Y-5343984D02*
X4015896Y-5486841D01*
X4015896Y-5486841D02*
X4082562Y-5343984D01*
X4082562Y-5343984D02*
X4082562Y-5543984D01*
X4263515Y-5543984D02*
X4263515Y-5439222D01*
X4263515Y-5439222D02*
X4253991Y-5420174D01*
X4253991Y-5420174D02*
X4234944Y-5410650D01*
X4234944Y-5410650D02*
X4196848Y-5410650D01*
X4196848Y-5410650D02*
X4177801Y-5420174D01*
X4263515Y-5534460D02*
X4244467Y-5543984D01*
X4244467Y-5543984D02*
X4196848Y-5543984D01*
X4196848Y-5543984D02*
X4177801Y-5534460D01*
X4177801Y-5534460D02*
X4168277Y-5515412D01*
X4168277Y-5515412D02*
X4168277Y-5496365D01*
X4168277Y-5496365D02*
X4177801Y-5477317D01*
X4177801Y-5477317D02*
X4196848Y-5467793D01*
X4196848Y-5467793D02*
X4244467Y-5467793D01*
X4244467Y-5467793D02*
X4263515Y-5458270D01*
X4358753Y-5410650D02*
X4358753Y-5610650D01*
X4358753Y-5420174D02*
X4377801Y-5410650D01*
X4377801Y-5410650D02*
X4415896Y-5410650D01*
X4415896Y-5410650D02*
X4434944Y-5420174D01*
X4434944Y-5420174D02*
X4444467Y-5429698D01*
X4444467Y-5429698D02*
X4453991Y-5448746D01*
X4453991Y-5448746D02*
X4453991Y-5505889D01*
X4453991Y-5505889D02*
X4444467Y-5524936D01*
X4444467Y-5524936D02*
X4434944Y-5534460D01*
X4434944Y-5534460D02*
X4415896Y-5543984D01*
X4415896Y-5543984D02*
X4377801Y-5543984D01*
X4377801Y-5543984D02*
X4358753Y-5534460D01*
X4539705Y-5524936D02*
X4549229Y-5534460D01*
X4549229Y-5534460D02*
X4539705Y-5543984D01*
X4539705Y-5543984D02*
X4530182Y-5534460D01*
X4530182Y-5534460D02*
X4539705Y-5524936D01*
X4539705Y-5524936D02*
X4539705Y-5543984D01*
X4539705Y-5420174D02*
X4549229Y-5429698D01*
X4549229Y-5429698D02*
X4539705Y-5439222D01*
X4539705Y-5439222D02*
X4530182Y-5429698D01*
X4530182Y-5429698D02*
X4539705Y-5420174D01*
X4539705Y-5420174D02*
X4539705Y-5439222D01*
M02*
