%TF.GenerationSoftware,KiCad,Pcbnew,8.0.1*%
%TF.CreationDate,2024-07-20T17:57:33+02:00*%
%TF.ProjectId,midi_mic_muter,6d696469-5f6d-4696-935f-6d757465722e,rev?*%
%TF.SameCoordinates,Original*%
%TF.FileFunction,Drillmap*%
%TF.FilePolarity,Positive*%
%FSLAX45Y45*%
G04 Gerber Fmt 4.5, Leading zero omitted, Abs format (unit mm)*
G04 Created by KiCad (PCBNEW 8.0.1) date 2024-07-20 17:57:33*
%MOMM*%
%LPD*%
G01*
G04 APERTURE LIST*
%ADD10C,0.050000*%
%ADD11C,0.200000*%
%ADD12C,0.100000*%
G04 APERTURE END LIST*
D10*
X2910000Y-4260000D02*
X5225000Y-4260000D01*
X5225000Y-5230000D01*
X2910000Y-5230000D01*
X2910000Y-4260000D01*
D11*
D12*
X4165000Y-4515000D02*
X4195000Y-4545000D01*
X4195000Y-4515000D02*
X4165000Y-4545000D01*
X4335000Y-4515000D02*
X4365000Y-4545000D01*
X4365000Y-4515000D02*
X4335000Y-4545000D01*
X4365000Y-5075000D02*
X4395000Y-5105000D01*
X4395000Y-5075000D02*
X4365000Y-5105000D01*
X4405000Y-4325000D02*
X4435000Y-4355000D01*
X4435000Y-4325000D02*
X4405000Y-4355000D01*
X4495000Y-4935000D02*
X4525000Y-4965000D01*
X4525000Y-4935000D02*
X4495000Y-4965000D01*
X4585000Y-4805000D02*
X4615000Y-4835000D01*
X4615000Y-4805000D02*
X4585000Y-4835000D01*
X4775000Y-4875000D02*
X4805000Y-4905000D01*
X4805000Y-4875000D02*
X4775000Y-4905000D01*
X4815000Y-4405000D02*
X4845000Y-4435000D01*
X4845000Y-4405000D02*
X4815000Y-4435000D01*
X3162000Y-4450000D02*
G75*
G02*
X3062000Y-4450000I-50000J0D01*
G01*
X3062000Y-4450000D02*
G75*
G02*
X3162000Y-4450000I50000J0D01*
G01*
X3162000Y-5040000D02*
G75*
G02*
X3062000Y-5040000I-50000J0D01*
G01*
X3062000Y-5040000D02*
G75*
G02*
X3162000Y-5040000I50000J0D01*
G01*
X3416000Y-4450000D02*
G75*
G02*
X3316000Y-4450000I-50000J0D01*
G01*
X3316000Y-4450000D02*
G75*
G02*
X3416000Y-4450000I50000J0D01*
G01*
X3416000Y-5040000D02*
G75*
G02*
X3316000Y-5040000I-50000J0D01*
G01*
X3316000Y-5040000D02*
G75*
G02*
X3416000Y-5040000I50000J0D01*
G01*
X3670000Y-4450000D02*
G75*
G02*
X3570000Y-4450000I-50000J0D01*
G01*
X3570000Y-4450000D02*
G75*
G02*
X3670000Y-4450000I50000J0D01*
G01*
X3670000Y-5040000D02*
G75*
G02*
X3570000Y-5040000I-50000J0D01*
G01*
X3570000Y-5040000D02*
G75*
G02*
X3670000Y-5040000I50000J0D01*
G01*
X5080000Y-4482000D02*
G75*
G02*
X4980000Y-4482000I-50000J0D01*
G01*
X4980000Y-4482000D02*
G75*
G02*
X5080000Y-4482000I50000J0D01*
G01*
X5080000Y-4736000D02*
G75*
G02*
X4980000Y-4736000I-50000J0D01*
G01*
X4980000Y-4736000D02*
G75*
G02*
X5080000Y-4736000I50000J0D01*
G01*
X5080000Y-4990000D02*
G75*
G02*
X4980000Y-4990000I-50000J0D01*
G01*
X4980000Y-4990000D02*
G75*
G02*
X5080000Y-4990000I50000J0D01*
G01*
D11*
X3168277Y-5543984D02*
X3168277Y-5343984D01*
X3168277Y-5343984D02*
X3215896Y-5343984D01*
X3215896Y-5343984D02*
X3244467Y-5353508D01*
X3244467Y-5353508D02*
X3263515Y-5372555D01*
X3263515Y-5372555D02*
X3273039Y-5391603D01*
X3273039Y-5391603D02*
X3282562Y-5429698D01*
X3282562Y-5429698D02*
X3282562Y-5458270D01*
X3282562Y-5458270D02*
X3273039Y-5496365D01*
X3273039Y-5496365D02*
X3263515Y-5515412D01*
X3263515Y-5515412D02*
X3244467Y-5534460D01*
X3244467Y-5534460D02*
X3215896Y-5543984D01*
X3215896Y-5543984D02*
X3168277Y-5543984D01*
X3368277Y-5543984D02*
X3368277Y-5410650D01*
X3368277Y-5448746D02*
X3377801Y-5429698D01*
X3377801Y-5429698D02*
X3387324Y-5420174D01*
X3387324Y-5420174D02*
X3406372Y-5410650D01*
X3406372Y-5410650D02*
X3425420Y-5410650D01*
X3492086Y-5543984D02*
X3492086Y-5410650D01*
X3492086Y-5343984D02*
X3482562Y-5353508D01*
X3482562Y-5353508D02*
X3492086Y-5363031D01*
X3492086Y-5363031D02*
X3501610Y-5353508D01*
X3501610Y-5353508D02*
X3492086Y-5343984D01*
X3492086Y-5343984D02*
X3492086Y-5363031D01*
X3615896Y-5543984D02*
X3596848Y-5534460D01*
X3596848Y-5534460D02*
X3587324Y-5515412D01*
X3587324Y-5515412D02*
X3587324Y-5343984D01*
X3720658Y-5543984D02*
X3701610Y-5534460D01*
X3701610Y-5534460D02*
X3692086Y-5515412D01*
X3692086Y-5515412D02*
X3692086Y-5343984D01*
X3949229Y-5543984D02*
X3949229Y-5343984D01*
X3949229Y-5343984D02*
X4015896Y-5486841D01*
X4015896Y-5486841D02*
X4082562Y-5343984D01*
X4082562Y-5343984D02*
X4082562Y-5543984D01*
X4263515Y-5543984D02*
X4263515Y-5439222D01*
X4263515Y-5439222D02*
X4253991Y-5420174D01*
X4253991Y-5420174D02*
X4234944Y-5410650D01*
X4234944Y-5410650D02*
X4196848Y-5410650D01*
X4196848Y-5410650D02*
X4177801Y-5420174D01*
X4263515Y-5534460D02*
X4244467Y-5543984D01*
X4244467Y-5543984D02*
X4196848Y-5543984D01*
X4196848Y-5543984D02*
X4177801Y-5534460D01*
X4177801Y-5534460D02*
X4168277Y-5515412D01*
X4168277Y-5515412D02*
X4168277Y-5496365D01*
X4168277Y-5496365D02*
X4177801Y-5477317D01*
X4177801Y-5477317D02*
X4196848Y-5467793D01*
X4196848Y-5467793D02*
X4244467Y-5467793D01*
X4244467Y-5467793D02*
X4263515Y-5458270D01*
X4358753Y-5410650D02*
X4358753Y-5610650D01*
X4358753Y-5420174D02*
X4377801Y-5410650D01*
X4377801Y-5410650D02*
X4415896Y-5410650D01*
X4415896Y-5410650D02*
X4434944Y-5420174D01*
X4434944Y-5420174D02*
X4444467Y-5429698D01*
X4444467Y-5429698D02*
X4453991Y-5448746D01*
X4453991Y-5448746D02*
X4453991Y-5505889D01*
X4453991Y-5505889D02*
X4444467Y-5524936D01*
X4444467Y-5524936D02*
X4434944Y-5534460D01*
X4434944Y-5534460D02*
X4415896Y-5543984D01*
X4415896Y-5543984D02*
X4377801Y-5543984D01*
X4377801Y-5543984D02*
X4358753Y-5534460D01*
X4539705Y-5524936D02*
X4549229Y-5534460D01*
X4549229Y-5534460D02*
X4539705Y-5543984D01*
X4539705Y-5543984D02*
X4530182Y-5534460D01*
X4530182Y-5534460D02*
X4539705Y-5524936D01*
X4539705Y-5524936D02*
X4539705Y-5543984D01*
X4539705Y-5420174D02*
X4549229Y-5429698D01*
X4549229Y-5429698D02*
X4539705Y-5439222D01*
X4539705Y-5439222D02*
X4530182Y-5429698D01*
X4530182Y-5429698D02*
X4539705Y-5420174D01*
X4539705Y-5420174D02*
X4539705Y-5439222D01*
D12*
X2877500Y-5857500D02*
X2907500Y-5887500D01*
X2907500Y-5857500D02*
X2877500Y-5887500D01*
D11*
X3206372Y-5763984D02*
X3225420Y-5763984D01*
X3225420Y-5763984D02*
X3244467Y-5773508D01*
X3244467Y-5773508D02*
X3253991Y-5783031D01*
X3253991Y-5783031D02*
X3263515Y-5802079D01*
X3263515Y-5802079D02*
X3273039Y-5840174D01*
X3273039Y-5840174D02*
X3273039Y-5887793D01*
X3273039Y-5887793D02*
X3263515Y-5925888D01*
X3263515Y-5925888D02*
X3253991Y-5944936D01*
X3253991Y-5944936D02*
X3244467Y-5954460D01*
X3244467Y-5954460D02*
X3225420Y-5963984D01*
X3225420Y-5963984D02*
X3206372Y-5963984D01*
X3206372Y-5963984D02*
X3187324Y-5954460D01*
X3187324Y-5954460D02*
X3177801Y-5944936D01*
X3177801Y-5944936D02*
X3168277Y-5925888D01*
X3168277Y-5925888D02*
X3158753Y-5887793D01*
X3158753Y-5887793D02*
X3158753Y-5840174D01*
X3158753Y-5840174D02*
X3168277Y-5802079D01*
X3168277Y-5802079D02*
X3177801Y-5783031D01*
X3177801Y-5783031D02*
X3187324Y-5773508D01*
X3187324Y-5773508D02*
X3206372Y-5763984D01*
X3358753Y-5944936D02*
X3368277Y-5954460D01*
X3368277Y-5954460D02*
X3358753Y-5963984D01*
X3358753Y-5963984D02*
X3349229Y-5954460D01*
X3349229Y-5954460D02*
X3358753Y-5944936D01*
X3358753Y-5944936D02*
X3358753Y-5963984D01*
X3434943Y-5763984D02*
X3558753Y-5763984D01*
X3558753Y-5763984D02*
X3492086Y-5840174D01*
X3492086Y-5840174D02*
X3520658Y-5840174D01*
X3520658Y-5840174D02*
X3539705Y-5849698D01*
X3539705Y-5849698D02*
X3549229Y-5859222D01*
X3549229Y-5859222D02*
X3558753Y-5878269D01*
X3558753Y-5878269D02*
X3558753Y-5925888D01*
X3558753Y-5925888D02*
X3549229Y-5944936D01*
X3549229Y-5944936D02*
X3539705Y-5954460D01*
X3539705Y-5954460D02*
X3520658Y-5963984D01*
X3520658Y-5963984D02*
X3463515Y-5963984D01*
X3463515Y-5963984D02*
X3444467Y-5954460D01*
X3444467Y-5954460D02*
X3434943Y-5944936D01*
X3682562Y-5763984D02*
X3701610Y-5763984D01*
X3701610Y-5763984D02*
X3720658Y-5773508D01*
X3720658Y-5773508D02*
X3730182Y-5783031D01*
X3730182Y-5783031D02*
X3739705Y-5802079D01*
X3739705Y-5802079D02*
X3749229Y-5840174D01*
X3749229Y-5840174D02*
X3749229Y-5887793D01*
X3749229Y-5887793D02*
X3739705Y-5925888D01*
X3739705Y-5925888D02*
X3730182Y-5944936D01*
X3730182Y-5944936D02*
X3720658Y-5954460D01*
X3720658Y-5954460D02*
X3701610Y-5963984D01*
X3701610Y-5963984D02*
X3682562Y-5963984D01*
X3682562Y-5963984D02*
X3663515Y-5954460D01*
X3663515Y-5954460D02*
X3653991Y-5944936D01*
X3653991Y-5944936D02*
X3644467Y-5925888D01*
X3644467Y-5925888D02*
X3634943Y-5887793D01*
X3634943Y-5887793D02*
X3634943Y-5840174D01*
X3634943Y-5840174D02*
X3644467Y-5802079D01*
X3644467Y-5802079D02*
X3653991Y-5783031D01*
X3653991Y-5783031D02*
X3663515Y-5773508D01*
X3663515Y-5773508D02*
X3682562Y-5763984D01*
X3873039Y-5763984D02*
X3892086Y-5763984D01*
X3892086Y-5763984D02*
X3911134Y-5773508D01*
X3911134Y-5773508D02*
X3920658Y-5783031D01*
X3920658Y-5783031D02*
X3930182Y-5802079D01*
X3930182Y-5802079D02*
X3939705Y-5840174D01*
X3939705Y-5840174D02*
X3939705Y-5887793D01*
X3939705Y-5887793D02*
X3930182Y-5925888D01*
X3930182Y-5925888D02*
X3920658Y-5944936D01*
X3920658Y-5944936D02*
X3911134Y-5954460D01*
X3911134Y-5954460D02*
X3892086Y-5963984D01*
X3892086Y-5963984D02*
X3873039Y-5963984D01*
X3873039Y-5963984D02*
X3853991Y-5954460D01*
X3853991Y-5954460D02*
X3844467Y-5944936D01*
X3844467Y-5944936D02*
X3834943Y-5925888D01*
X3834943Y-5925888D02*
X3825420Y-5887793D01*
X3825420Y-5887793D02*
X3825420Y-5840174D01*
X3825420Y-5840174D02*
X3834943Y-5802079D01*
X3834943Y-5802079D02*
X3844467Y-5783031D01*
X3844467Y-5783031D02*
X3853991Y-5773508D01*
X3853991Y-5773508D02*
X3873039Y-5763984D01*
X4025420Y-5963984D02*
X4025420Y-5830650D01*
X4025420Y-5849698D02*
X4034943Y-5840174D01*
X4034943Y-5840174D02*
X4053991Y-5830650D01*
X4053991Y-5830650D02*
X4082563Y-5830650D01*
X4082563Y-5830650D02*
X4101610Y-5840174D01*
X4101610Y-5840174D02*
X4111134Y-5859222D01*
X4111134Y-5859222D02*
X4111134Y-5963984D01*
X4111134Y-5859222D02*
X4120658Y-5840174D01*
X4120658Y-5840174D02*
X4139705Y-5830650D01*
X4139705Y-5830650D02*
X4168277Y-5830650D01*
X4168277Y-5830650D02*
X4187324Y-5840174D01*
X4187324Y-5840174D02*
X4196848Y-5859222D01*
X4196848Y-5859222D02*
X4196848Y-5963984D01*
X4292086Y-5963984D02*
X4292086Y-5830650D01*
X4292086Y-5849698D02*
X4301610Y-5840174D01*
X4301610Y-5840174D02*
X4320658Y-5830650D01*
X4320658Y-5830650D02*
X4349229Y-5830650D01*
X4349229Y-5830650D02*
X4368277Y-5840174D01*
X4368277Y-5840174D02*
X4377801Y-5859222D01*
X4377801Y-5859222D02*
X4377801Y-5963984D01*
X4377801Y-5859222D02*
X4387325Y-5840174D01*
X4387325Y-5840174D02*
X4406372Y-5830650D01*
X4406372Y-5830650D02*
X4434944Y-5830650D01*
X4434944Y-5830650D02*
X4453991Y-5840174D01*
X4453991Y-5840174D02*
X4463515Y-5859222D01*
X4463515Y-5859222D02*
X4463515Y-5963984D01*
X4853991Y-5754460D02*
X4682563Y-6011603D01*
X5111134Y-5763984D02*
X5130182Y-5763984D01*
X5130182Y-5763984D02*
X5149229Y-5773508D01*
X5149229Y-5773508D02*
X5158753Y-5783031D01*
X5158753Y-5783031D02*
X5168277Y-5802079D01*
X5168277Y-5802079D02*
X5177801Y-5840174D01*
X5177801Y-5840174D02*
X5177801Y-5887793D01*
X5177801Y-5887793D02*
X5168277Y-5925888D01*
X5168277Y-5925888D02*
X5158753Y-5944936D01*
X5158753Y-5944936D02*
X5149229Y-5954460D01*
X5149229Y-5954460D02*
X5130182Y-5963984D01*
X5130182Y-5963984D02*
X5111134Y-5963984D01*
X5111134Y-5963984D02*
X5092087Y-5954460D01*
X5092087Y-5954460D02*
X5082563Y-5944936D01*
X5082563Y-5944936D02*
X5073039Y-5925888D01*
X5073039Y-5925888D02*
X5063515Y-5887793D01*
X5063515Y-5887793D02*
X5063515Y-5840174D01*
X5063515Y-5840174D02*
X5073039Y-5802079D01*
X5073039Y-5802079D02*
X5082563Y-5783031D01*
X5082563Y-5783031D02*
X5092087Y-5773508D01*
X5092087Y-5773508D02*
X5111134Y-5763984D01*
X5263515Y-5944936D02*
X5273039Y-5954460D01*
X5273039Y-5954460D02*
X5263515Y-5963984D01*
X5263515Y-5963984D02*
X5253991Y-5954460D01*
X5253991Y-5954460D02*
X5263515Y-5944936D01*
X5263515Y-5944936D02*
X5263515Y-5963984D01*
X5396848Y-5763984D02*
X5415896Y-5763984D01*
X5415896Y-5763984D02*
X5434944Y-5773508D01*
X5434944Y-5773508D02*
X5444468Y-5783031D01*
X5444468Y-5783031D02*
X5453991Y-5802079D01*
X5453991Y-5802079D02*
X5463515Y-5840174D01*
X5463515Y-5840174D02*
X5463515Y-5887793D01*
X5463515Y-5887793D02*
X5453991Y-5925888D01*
X5453991Y-5925888D02*
X5444468Y-5944936D01*
X5444468Y-5944936D02*
X5434944Y-5954460D01*
X5434944Y-5954460D02*
X5415896Y-5963984D01*
X5415896Y-5963984D02*
X5396848Y-5963984D01*
X5396848Y-5963984D02*
X5377801Y-5954460D01*
X5377801Y-5954460D02*
X5368277Y-5944936D01*
X5368277Y-5944936D02*
X5358753Y-5925888D01*
X5358753Y-5925888D02*
X5349229Y-5887793D01*
X5349229Y-5887793D02*
X5349229Y-5840174D01*
X5349229Y-5840174D02*
X5358753Y-5802079D01*
X5358753Y-5802079D02*
X5368277Y-5783031D01*
X5368277Y-5783031D02*
X5377801Y-5773508D01*
X5377801Y-5773508D02*
X5396848Y-5763984D01*
X5653991Y-5963984D02*
X5539706Y-5963984D01*
X5596848Y-5963984D02*
X5596848Y-5763984D01*
X5596848Y-5763984D02*
X5577801Y-5792555D01*
X5577801Y-5792555D02*
X5558753Y-5811603D01*
X5558753Y-5811603D02*
X5539706Y-5821127D01*
X5844467Y-5963984D02*
X5730182Y-5963984D01*
X5787325Y-5963984D02*
X5787325Y-5763984D01*
X5787325Y-5763984D02*
X5768277Y-5792555D01*
X5768277Y-5792555D02*
X5749229Y-5811603D01*
X5749229Y-5811603D02*
X5730182Y-5821127D01*
X5958753Y-5849698D02*
X5939706Y-5840174D01*
X5939706Y-5840174D02*
X5930182Y-5830650D01*
X5930182Y-5830650D02*
X5920658Y-5811603D01*
X5920658Y-5811603D02*
X5920658Y-5802079D01*
X5920658Y-5802079D02*
X5930182Y-5783031D01*
X5930182Y-5783031D02*
X5939706Y-5773508D01*
X5939706Y-5773508D02*
X5958753Y-5763984D01*
X5958753Y-5763984D02*
X5996848Y-5763984D01*
X5996848Y-5763984D02*
X6015896Y-5773508D01*
X6015896Y-5773508D02*
X6025420Y-5783031D01*
X6025420Y-5783031D02*
X6034944Y-5802079D01*
X6034944Y-5802079D02*
X6034944Y-5811603D01*
X6034944Y-5811603D02*
X6025420Y-5830650D01*
X6025420Y-5830650D02*
X6015896Y-5840174D01*
X6015896Y-5840174D02*
X5996848Y-5849698D01*
X5996848Y-5849698D02*
X5958753Y-5849698D01*
X5958753Y-5849698D02*
X5939706Y-5859222D01*
X5939706Y-5859222D02*
X5930182Y-5868746D01*
X5930182Y-5868746D02*
X5920658Y-5887793D01*
X5920658Y-5887793D02*
X5920658Y-5925888D01*
X5920658Y-5925888D02*
X5930182Y-5944936D01*
X5930182Y-5944936D02*
X5939706Y-5954460D01*
X5939706Y-5954460D02*
X5958753Y-5963984D01*
X5958753Y-5963984D02*
X5996848Y-5963984D01*
X5996848Y-5963984D02*
X6015896Y-5954460D01*
X6015896Y-5954460D02*
X6025420Y-5944936D01*
X6025420Y-5944936D02*
X6034944Y-5925888D01*
X6034944Y-5925888D02*
X6034944Y-5887793D01*
X6034944Y-5887793D02*
X6025420Y-5868746D01*
X6025420Y-5868746D02*
X6015896Y-5859222D01*
X6015896Y-5859222D02*
X5996848Y-5849698D01*
X6111134Y-5763984D02*
X6111134Y-5802079D01*
X6187325Y-5763984D02*
X6187325Y-5802079D01*
X6482563Y-6040174D02*
X6473039Y-6030650D01*
X6473039Y-6030650D02*
X6453991Y-6002079D01*
X6453991Y-6002079D02*
X6444468Y-5983031D01*
X6444468Y-5983031D02*
X6434944Y-5954460D01*
X6434944Y-5954460D02*
X6425420Y-5906841D01*
X6425420Y-5906841D02*
X6425420Y-5868746D01*
X6425420Y-5868746D02*
X6434944Y-5821127D01*
X6434944Y-5821127D02*
X6444468Y-5792555D01*
X6444468Y-5792555D02*
X6453991Y-5773508D01*
X6453991Y-5773508D02*
X6473039Y-5744936D01*
X6473039Y-5744936D02*
X6482563Y-5735412D01*
X6587325Y-5849698D02*
X6568277Y-5840174D01*
X6568277Y-5840174D02*
X6558753Y-5830650D01*
X6558753Y-5830650D02*
X6549229Y-5811603D01*
X6549229Y-5811603D02*
X6549229Y-5802079D01*
X6549229Y-5802079D02*
X6558753Y-5783031D01*
X6558753Y-5783031D02*
X6568277Y-5773508D01*
X6568277Y-5773508D02*
X6587325Y-5763984D01*
X6587325Y-5763984D02*
X6625420Y-5763984D01*
X6625420Y-5763984D02*
X6644468Y-5773508D01*
X6644468Y-5773508D02*
X6653991Y-5783031D01*
X6653991Y-5783031D02*
X6663515Y-5802079D01*
X6663515Y-5802079D02*
X6663515Y-5811603D01*
X6663515Y-5811603D02*
X6653991Y-5830650D01*
X6653991Y-5830650D02*
X6644468Y-5840174D01*
X6644468Y-5840174D02*
X6625420Y-5849698D01*
X6625420Y-5849698D02*
X6587325Y-5849698D01*
X6587325Y-5849698D02*
X6568277Y-5859222D01*
X6568277Y-5859222D02*
X6558753Y-5868746D01*
X6558753Y-5868746D02*
X6549229Y-5887793D01*
X6549229Y-5887793D02*
X6549229Y-5925888D01*
X6549229Y-5925888D02*
X6558753Y-5944936D01*
X6558753Y-5944936D02*
X6568277Y-5954460D01*
X6568277Y-5954460D02*
X6587325Y-5963984D01*
X6587325Y-5963984D02*
X6625420Y-5963984D01*
X6625420Y-5963984D02*
X6644468Y-5954460D01*
X6644468Y-5954460D02*
X6653991Y-5944936D01*
X6653991Y-5944936D02*
X6663515Y-5925888D01*
X6663515Y-5925888D02*
X6663515Y-5887793D01*
X6663515Y-5887793D02*
X6653991Y-5868746D01*
X6653991Y-5868746D02*
X6644468Y-5859222D01*
X6644468Y-5859222D02*
X6625420Y-5849698D01*
X6901610Y-5963984D02*
X6901610Y-5763984D01*
X6987325Y-5963984D02*
X6987325Y-5859222D01*
X6987325Y-5859222D02*
X6977801Y-5840174D01*
X6977801Y-5840174D02*
X6958753Y-5830650D01*
X6958753Y-5830650D02*
X6930182Y-5830650D01*
X6930182Y-5830650D02*
X6911134Y-5840174D01*
X6911134Y-5840174D02*
X6901610Y-5849698D01*
X7111134Y-5963984D02*
X7092087Y-5954460D01*
X7092087Y-5954460D02*
X7082563Y-5944936D01*
X7082563Y-5944936D02*
X7073039Y-5925888D01*
X7073039Y-5925888D02*
X7073039Y-5868746D01*
X7073039Y-5868746D02*
X7082563Y-5849698D01*
X7082563Y-5849698D02*
X7092087Y-5840174D01*
X7092087Y-5840174D02*
X7111134Y-5830650D01*
X7111134Y-5830650D02*
X7139706Y-5830650D01*
X7139706Y-5830650D02*
X7158753Y-5840174D01*
X7158753Y-5840174D02*
X7168277Y-5849698D01*
X7168277Y-5849698D02*
X7177801Y-5868746D01*
X7177801Y-5868746D02*
X7177801Y-5925888D01*
X7177801Y-5925888D02*
X7168277Y-5944936D01*
X7168277Y-5944936D02*
X7158753Y-5954460D01*
X7158753Y-5954460D02*
X7139706Y-5963984D01*
X7139706Y-5963984D02*
X7111134Y-5963984D01*
X7292087Y-5963984D02*
X7273039Y-5954460D01*
X7273039Y-5954460D02*
X7263515Y-5935412D01*
X7263515Y-5935412D02*
X7263515Y-5763984D01*
X7444468Y-5954460D02*
X7425420Y-5963984D01*
X7425420Y-5963984D02*
X7387325Y-5963984D01*
X7387325Y-5963984D02*
X7368277Y-5954460D01*
X7368277Y-5954460D02*
X7358753Y-5935412D01*
X7358753Y-5935412D02*
X7358753Y-5859222D01*
X7358753Y-5859222D02*
X7368277Y-5840174D01*
X7368277Y-5840174D02*
X7387325Y-5830650D01*
X7387325Y-5830650D02*
X7425420Y-5830650D01*
X7425420Y-5830650D02*
X7444468Y-5840174D01*
X7444468Y-5840174D02*
X7453991Y-5859222D01*
X7453991Y-5859222D02*
X7453991Y-5878269D01*
X7453991Y-5878269D02*
X7358753Y-5897317D01*
X7530182Y-5954460D02*
X7549230Y-5963984D01*
X7549230Y-5963984D02*
X7587325Y-5963984D01*
X7587325Y-5963984D02*
X7606372Y-5954460D01*
X7606372Y-5954460D02*
X7615896Y-5935412D01*
X7615896Y-5935412D02*
X7615896Y-5925888D01*
X7615896Y-5925888D02*
X7606372Y-5906841D01*
X7606372Y-5906841D02*
X7587325Y-5897317D01*
X7587325Y-5897317D02*
X7558753Y-5897317D01*
X7558753Y-5897317D02*
X7539706Y-5887793D01*
X7539706Y-5887793D02*
X7530182Y-5868746D01*
X7530182Y-5868746D02*
X7530182Y-5859222D01*
X7530182Y-5859222D02*
X7539706Y-5840174D01*
X7539706Y-5840174D02*
X7558753Y-5830650D01*
X7558753Y-5830650D02*
X7587325Y-5830650D01*
X7587325Y-5830650D02*
X7606372Y-5840174D01*
X7682563Y-6040174D02*
X7692087Y-6030650D01*
X7692087Y-6030650D02*
X7711134Y-6002079D01*
X7711134Y-6002079D02*
X7720658Y-5983031D01*
X7720658Y-5983031D02*
X7730182Y-5954460D01*
X7730182Y-5954460D02*
X7739706Y-5906841D01*
X7739706Y-5906841D02*
X7739706Y-5868746D01*
X7739706Y-5868746D02*
X7730182Y-5821127D01*
X7730182Y-5821127D02*
X7720658Y-5792555D01*
X7720658Y-5792555D02*
X7711134Y-5773508D01*
X7711134Y-5773508D02*
X7692087Y-5744936D01*
X7692087Y-5744936D02*
X7682563Y-5735412D01*
D12*
X2907500Y-6136500D02*
G75*
G02*
X2807500Y-6136500I-50000J0D01*
G01*
X2807500Y-6136500D02*
G75*
G02*
X2907500Y-6136500I50000J0D01*
G01*
D11*
X3273039Y-6227984D02*
X3158753Y-6227984D01*
X3215896Y-6227984D02*
X3215896Y-6027984D01*
X3215896Y-6027984D02*
X3196848Y-6056555D01*
X3196848Y-6056555D02*
X3177801Y-6075603D01*
X3177801Y-6075603D02*
X3158753Y-6085127D01*
X3358753Y-6208936D02*
X3368277Y-6218460D01*
X3368277Y-6218460D02*
X3358753Y-6227984D01*
X3358753Y-6227984D02*
X3349229Y-6218460D01*
X3349229Y-6218460D02*
X3358753Y-6208936D01*
X3358753Y-6208936D02*
X3358753Y-6227984D01*
X3492086Y-6027984D02*
X3511134Y-6027984D01*
X3511134Y-6027984D02*
X3530182Y-6037508D01*
X3530182Y-6037508D02*
X3539705Y-6047031D01*
X3539705Y-6047031D02*
X3549229Y-6066079D01*
X3549229Y-6066079D02*
X3558753Y-6104174D01*
X3558753Y-6104174D02*
X3558753Y-6151793D01*
X3558753Y-6151793D02*
X3549229Y-6189888D01*
X3549229Y-6189888D02*
X3539705Y-6208936D01*
X3539705Y-6208936D02*
X3530182Y-6218460D01*
X3530182Y-6218460D02*
X3511134Y-6227984D01*
X3511134Y-6227984D02*
X3492086Y-6227984D01*
X3492086Y-6227984D02*
X3473039Y-6218460D01*
X3473039Y-6218460D02*
X3463515Y-6208936D01*
X3463515Y-6208936D02*
X3453991Y-6189888D01*
X3453991Y-6189888D02*
X3444467Y-6151793D01*
X3444467Y-6151793D02*
X3444467Y-6104174D01*
X3444467Y-6104174D02*
X3453991Y-6066079D01*
X3453991Y-6066079D02*
X3463515Y-6047031D01*
X3463515Y-6047031D02*
X3473039Y-6037508D01*
X3473039Y-6037508D02*
X3492086Y-6027984D01*
X3682562Y-6027984D02*
X3701610Y-6027984D01*
X3701610Y-6027984D02*
X3720658Y-6037508D01*
X3720658Y-6037508D02*
X3730182Y-6047031D01*
X3730182Y-6047031D02*
X3739705Y-6066079D01*
X3739705Y-6066079D02*
X3749229Y-6104174D01*
X3749229Y-6104174D02*
X3749229Y-6151793D01*
X3749229Y-6151793D02*
X3739705Y-6189888D01*
X3739705Y-6189888D02*
X3730182Y-6208936D01*
X3730182Y-6208936D02*
X3720658Y-6218460D01*
X3720658Y-6218460D02*
X3701610Y-6227984D01*
X3701610Y-6227984D02*
X3682562Y-6227984D01*
X3682562Y-6227984D02*
X3663515Y-6218460D01*
X3663515Y-6218460D02*
X3653991Y-6208936D01*
X3653991Y-6208936D02*
X3644467Y-6189888D01*
X3644467Y-6189888D02*
X3634943Y-6151793D01*
X3634943Y-6151793D02*
X3634943Y-6104174D01*
X3634943Y-6104174D02*
X3644467Y-6066079D01*
X3644467Y-6066079D02*
X3653991Y-6047031D01*
X3653991Y-6047031D02*
X3663515Y-6037508D01*
X3663515Y-6037508D02*
X3682562Y-6027984D01*
X3873039Y-6027984D02*
X3892086Y-6027984D01*
X3892086Y-6027984D02*
X3911134Y-6037508D01*
X3911134Y-6037508D02*
X3920658Y-6047031D01*
X3920658Y-6047031D02*
X3930182Y-6066079D01*
X3930182Y-6066079D02*
X3939705Y-6104174D01*
X3939705Y-6104174D02*
X3939705Y-6151793D01*
X3939705Y-6151793D02*
X3930182Y-6189888D01*
X3930182Y-6189888D02*
X3920658Y-6208936D01*
X3920658Y-6208936D02*
X3911134Y-6218460D01*
X3911134Y-6218460D02*
X3892086Y-6227984D01*
X3892086Y-6227984D02*
X3873039Y-6227984D01*
X3873039Y-6227984D02*
X3853991Y-6218460D01*
X3853991Y-6218460D02*
X3844467Y-6208936D01*
X3844467Y-6208936D02*
X3834943Y-6189888D01*
X3834943Y-6189888D02*
X3825420Y-6151793D01*
X3825420Y-6151793D02*
X3825420Y-6104174D01*
X3825420Y-6104174D02*
X3834943Y-6066079D01*
X3834943Y-6066079D02*
X3844467Y-6047031D01*
X3844467Y-6047031D02*
X3853991Y-6037508D01*
X3853991Y-6037508D02*
X3873039Y-6027984D01*
X4025420Y-6227984D02*
X4025420Y-6094650D01*
X4025420Y-6113698D02*
X4034943Y-6104174D01*
X4034943Y-6104174D02*
X4053991Y-6094650D01*
X4053991Y-6094650D02*
X4082563Y-6094650D01*
X4082563Y-6094650D02*
X4101610Y-6104174D01*
X4101610Y-6104174D02*
X4111134Y-6123222D01*
X4111134Y-6123222D02*
X4111134Y-6227984D01*
X4111134Y-6123222D02*
X4120658Y-6104174D01*
X4120658Y-6104174D02*
X4139705Y-6094650D01*
X4139705Y-6094650D02*
X4168277Y-6094650D01*
X4168277Y-6094650D02*
X4187324Y-6104174D01*
X4187324Y-6104174D02*
X4196848Y-6123222D01*
X4196848Y-6123222D02*
X4196848Y-6227984D01*
X4292086Y-6227984D02*
X4292086Y-6094650D01*
X4292086Y-6113698D02*
X4301610Y-6104174D01*
X4301610Y-6104174D02*
X4320658Y-6094650D01*
X4320658Y-6094650D02*
X4349229Y-6094650D01*
X4349229Y-6094650D02*
X4368277Y-6104174D01*
X4368277Y-6104174D02*
X4377801Y-6123222D01*
X4377801Y-6123222D02*
X4377801Y-6227984D01*
X4377801Y-6123222D02*
X4387325Y-6104174D01*
X4387325Y-6104174D02*
X4406372Y-6094650D01*
X4406372Y-6094650D02*
X4434944Y-6094650D01*
X4434944Y-6094650D02*
X4453991Y-6104174D01*
X4453991Y-6104174D02*
X4463515Y-6123222D01*
X4463515Y-6123222D02*
X4463515Y-6227984D01*
X4853991Y-6018460D02*
X4682563Y-6275603D01*
X5111134Y-6027984D02*
X5130182Y-6027984D01*
X5130182Y-6027984D02*
X5149229Y-6037508D01*
X5149229Y-6037508D02*
X5158753Y-6047031D01*
X5158753Y-6047031D02*
X5168277Y-6066079D01*
X5168277Y-6066079D02*
X5177801Y-6104174D01*
X5177801Y-6104174D02*
X5177801Y-6151793D01*
X5177801Y-6151793D02*
X5168277Y-6189888D01*
X5168277Y-6189888D02*
X5158753Y-6208936D01*
X5158753Y-6208936D02*
X5149229Y-6218460D01*
X5149229Y-6218460D02*
X5130182Y-6227984D01*
X5130182Y-6227984D02*
X5111134Y-6227984D01*
X5111134Y-6227984D02*
X5092087Y-6218460D01*
X5092087Y-6218460D02*
X5082563Y-6208936D01*
X5082563Y-6208936D02*
X5073039Y-6189888D01*
X5073039Y-6189888D02*
X5063515Y-6151793D01*
X5063515Y-6151793D02*
X5063515Y-6104174D01*
X5063515Y-6104174D02*
X5073039Y-6066079D01*
X5073039Y-6066079D02*
X5082563Y-6047031D01*
X5082563Y-6047031D02*
X5092087Y-6037508D01*
X5092087Y-6037508D02*
X5111134Y-6027984D01*
X5263515Y-6208936D02*
X5273039Y-6218460D01*
X5273039Y-6218460D02*
X5263515Y-6227984D01*
X5263515Y-6227984D02*
X5253991Y-6218460D01*
X5253991Y-6218460D02*
X5263515Y-6208936D01*
X5263515Y-6208936D02*
X5263515Y-6227984D01*
X5396848Y-6027984D02*
X5415896Y-6027984D01*
X5415896Y-6027984D02*
X5434944Y-6037508D01*
X5434944Y-6037508D02*
X5444468Y-6047031D01*
X5444468Y-6047031D02*
X5453991Y-6066079D01*
X5453991Y-6066079D02*
X5463515Y-6104174D01*
X5463515Y-6104174D02*
X5463515Y-6151793D01*
X5463515Y-6151793D02*
X5453991Y-6189888D01*
X5453991Y-6189888D02*
X5444468Y-6208936D01*
X5444468Y-6208936D02*
X5434944Y-6218460D01*
X5434944Y-6218460D02*
X5415896Y-6227984D01*
X5415896Y-6227984D02*
X5396848Y-6227984D01*
X5396848Y-6227984D02*
X5377801Y-6218460D01*
X5377801Y-6218460D02*
X5368277Y-6208936D01*
X5368277Y-6208936D02*
X5358753Y-6189888D01*
X5358753Y-6189888D02*
X5349229Y-6151793D01*
X5349229Y-6151793D02*
X5349229Y-6104174D01*
X5349229Y-6104174D02*
X5358753Y-6066079D01*
X5358753Y-6066079D02*
X5368277Y-6047031D01*
X5368277Y-6047031D02*
X5377801Y-6037508D01*
X5377801Y-6037508D02*
X5396848Y-6027984D01*
X5530182Y-6027984D02*
X5653991Y-6027984D01*
X5653991Y-6027984D02*
X5587325Y-6104174D01*
X5587325Y-6104174D02*
X5615896Y-6104174D01*
X5615896Y-6104174D02*
X5634944Y-6113698D01*
X5634944Y-6113698D02*
X5644467Y-6123222D01*
X5644467Y-6123222D02*
X5653991Y-6142269D01*
X5653991Y-6142269D02*
X5653991Y-6189888D01*
X5653991Y-6189888D02*
X5644467Y-6208936D01*
X5644467Y-6208936D02*
X5634944Y-6218460D01*
X5634944Y-6218460D02*
X5615896Y-6227984D01*
X5615896Y-6227984D02*
X5558753Y-6227984D01*
X5558753Y-6227984D02*
X5539706Y-6218460D01*
X5539706Y-6218460D02*
X5530182Y-6208936D01*
X5749229Y-6227984D02*
X5787325Y-6227984D01*
X5787325Y-6227984D02*
X5806372Y-6218460D01*
X5806372Y-6218460D02*
X5815896Y-6208936D01*
X5815896Y-6208936D02*
X5834944Y-6180365D01*
X5834944Y-6180365D02*
X5844467Y-6142269D01*
X5844467Y-6142269D02*
X5844467Y-6066079D01*
X5844467Y-6066079D02*
X5834944Y-6047031D01*
X5834944Y-6047031D02*
X5825420Y-6037508D01*
X5825420Y-6037508D02*
X5806372Y-6027984D01*
X5806372Y-6027984D02*
X5768277Y-6027984D01*
X5768277Y-6027984D02*
X5749229Y-6037508D01*
X5749229Y-6037508D02*
X5739706Y-6047031D01*
X5739706Y-6047031D02*
X5730182Y-6066079D01*
X5730182Y-6066079D02*
X5730182Y-6113698D01*
X5730182Y-6113698D02*
X5739706Y-6132746D01*
X5739706Y-6132746D02*
X5749229Y-6142269D01*
X5749229Y-6142269D02*
X5768277Y-6151793D01*
X5768277Y-6151793D02*
X5806372Y-6151793D01*
X5806372Y-6151793D02*
X5825420Y-6142269D01*
X5825420Y-6142269D02*
X5834944Y-6132746D01*
X5834944Y-6132746D02*
X5844467Y-6113698D01*
X6015896Y-6094650D02*
X6015896Y-6227984D01*
X5968277Y-6018460D02*
X5920658Y-6161317D01*
X5920658Y-6161317D02*
X6044467Y-6161317D01*
X6111134Y-6027984D02*
X6111134Y-6066079D01*
X6187325Y-6027984D02*
X6187325Y-6066079D01*
X6482563Y-6304174D02*
X6473039Y-6294650D01*
X6473039Y-6294650D02*
X6453991Y-6266079D01*
X6453991Y-6266079D02*
X6444468Y-6247031D01*
X6444468Y-6247031D02*
X6434944Y-6218460D01*
X6434944Y-6218460D02*
X6425420Y-6170841D01*
X6425420Y-6170841D02*
X6425420Y-6132746D01*
X6425420Y-6132746D02*
X6434944Y-6085127D01*
X6434944Y-6085127D02*
X6444468Y-6056555D01*
X6444468Y-6056555D02*
X6453991Y-6037508D01*
X6453991Y-6037508D02*
X6473039Y-6008936D01*
X6473039Y-6008936D02*
X6482563Y-5999412D01*
X6568277Y-6227984D02*
X6606372Y-6227984D01*
X6606372Y-6227984D02*
X6625420Y-6218460D01*
X6625420Y-6218460D02*
X6634944Y-6208936D01*
X6634944Y-6208936D02*
X6653991Y-6180365D01*
X6653991Y-6180365D02*
X6663515Y-6142269D01*
X6663515Y-6142269D02*
X6663515Y-6066079D01*
X6663515Y-6066079D02*
X6653991Y-6047031D01*
X6653991Y-6047031D02*
X6644468Y-6037508D01*
X6644468Y-6037508D02*
X6625420Y-6027984D01*
X6625420Y-6027984D02*
X6587325Y-6027984D01*
X6587325Y-6027984D02*
X6568277Y-6037508D01*
X6568277Y-6037508D02*
X6558753Y-6047031D01*
X6558753Y-6047031D02*
X6549229Y-6066079D01*
X6549229Y-6066079D02*
X6549229Y-6113698D01*
X6549229Y-6113698D02*
X6558753Y-6132746D01*
X6558753Y-6132746D02*
X6568277Y-6142269D01*
X6568277Y-6142269D02*
X6587325Y-6151793D01*
X6587325Y-6151793D02*
X6625420Y-6151793D01*
X6625420Y-6151793D02*
X6644468Y-6142269D01*
X6644468Y-6142269D02*
X6653991Y-6132746D01*
X6653991Y-6132746D02*
X6663515Y-6113698D01*
X6901610Y-6227984D02*
X6901610Y-6027984D01*
X6987325Y-6227984D02*
X6987325Y-6123222D01*
X6987325Y-6123222D02*
X6977801Y-6104174D01*
X6977801Y-6104174D02*
X6958753Y-6094650D01*
X6958753Y-6094650D02*
X6930182Y-6094650D01*
X6930182Y-6094650D02*
X6911134Y-6104174D01*
X6911134Y-6104174D02*
X6901610Y-6113698D01*
X7111134Y-6227984D02*
X7092087Y-6218460D01*
X7092087Y-6218460D02*
X7082563Y-6208936D01*
X7082563Y-6208936D02*
X7073039Y-6189888D01*
X7073039Y-6189888D02*
X7073039Y-6132746D01*
X7073039Y-6132746D02*
X7082563Y-6113698D01*
X7082563Y-6113698D02*
X7092087Y-6104174D01*
X7092087Y-6104174D02*
X7111134Y-6094650D01*
X7111134Y-6094650D02*
X7139706Y-6094650D01*
X7139706Y-6094650D02*
X7158753Y-6104174D01*
X7158753Y-6104174D02*
X7168277Y-6113698D01*
X7168277Y-6113698D02*
X7177801Y-6132746D01*
X7177801Y-6132746D02*
X7177801Y-6189888D01*
X7177801Y-6189888D02*
X7168277Y-6208936D01*
X7168277Y-6208936D02*
X7158753Y-6218460D01*
X7158753Y-6218460D02*
X7139706Y-6227984D01*
X7139706Y-6227984D02*
X7111134Y-6227984D01*
X7292087Y-6227984D02*
X7273039Y-6218460D01*
X7273039Y-6218460D02*
X7263515Y-6199412D01*
X7263515Y-6199412D02*
X7263515Y-6027984D01*
X7444468Y-6218460D02*
X7425420Y-6227984D01*
X7425420Y-6227984D02*
X7387325Y-6227984D01*
X7387325Y-6227984D02*
X7368277Y-6218460D01*
X7368277Y-6218460D02*
X7358753Y-6199412D01*
X7358753Y-6199412D02*
X7358753Y-6123222D01*
X7358753Y-6123222D02*
X7368277Y-6104174D01*
X7368277Y-6104174D02*
X7387325Y-6094650D01*
X7387325Y-6094650D02*
X7425420Y-6094650D01*
X7425420Y-6094650D02*
X7444468Y-6104174D01*
X7444468Y-6104174D02*
X7453991Y-6123222D01*
X7453991Y-6123222D02*
X7453991Y-6142269D01*
X7453991Y-6142269D02*
X7358753Y-6161317D01*
X7530182Y-6218460D02*
X7549230Y-6227984D01*
X7549230Y-6227984D02*
X7587325Y-6227984D01*
X7587325Y-6227984D02*
X7606372Y-6218460D01*
X7606372Y-6218460D02*
X7615896Y-6199412D01*
X7615896Y-6199412D02*
X7615896Y-6189888D01*
X7615896Y-6189888D02*
X7606372Y-6170841D01*
X7606372Y-6170841D02*
X7587325Y-6161317D01*
X7587325Y-6161317D02*
X7558753Y-6161317D01*
X7558753Y-6161317D02*
X7539706Y-6151793D01*
X7539706Y-6151793D02*
X7530182Y-6132746D01*
X7530182Y-6132746D02*
X7530182Y-6123222D01*
X7530182Y-6123222D02*
X7539706Y-6104174D01*
X7539706Y-6104174D02*
X7558753Y-6094650D01*
X7558753Y-6094650D02*
X7587325Y-6094650D01*
X7587325Y-6094650D02*
X7606372Y-6104174D01*
X7682563Y-6304174D02*
X7692087Y-6294650D01*
X7692087Y-6294650D02*
X7711134Y-6266079D01*
X7711134Y-6266079D02*
X7720658Y-6247031D01*
X7720658Y-6247031D02*
X7730182Y-6218460D01*
X7730182Y-6218460D02*
X7739706Y-6170841D01*
X7739706Y-6170841D02*
X7739706Y-6132746D01*
X7739706Y-6132746D02*
X7730182Y-6085127D01*
X7730182Y-6085127D02*
X7720658Y-6056555D01*
X7720658Y-6056555D02*
X7711134Y-6037508D01*
X7711134Y-6037508D02*
X7692087Y-6008936D01*
X7692087Y-6008936D02*
X7682563Y-5999412D01*
M02*
