G04 #@! TF.GenerationSoftware,KiCad,Pcbnew,8.0.1*
G04 #@! TF.CreationDate,2024-07-20T17:57:27+02:00*
G04 #@! TF.ProjectId,midi_mic_muter,6d696469-5f6d-4696-935f-6d757465722e,rev?*
G04 #@! TF.SameCoordinates,Original*
G04 #@! TF.FileFunction,Legend,Top*
G04 #@! TF.FilePolarity,Positive*
%FSLAX46Y46*%
G04 Gerber Fmt 4.6, Leading zero omitted, Abs format (unit mm)*
G04 Created by KiCad (PCBNEW 8.0.1) date 2024-07-20 17:57:27*
%MOMM*%
%LPD*%
G01*
G04 APERTURE LIST*
G04 Aperture macros list*
%AMRoundRect*
0 Rectangle with rounded corners*
0 $1 Rounding radius*
0 $2 $3 $4 $5 $6 $7 $8 $9 X,Y pos of 4 corners*
0 Add a 4 corners polygon primitive as box body*
4,1,4,$2,$3,$4,$5,$6,$7,$8,$9,$2,$3,0*
0 Add four circle primitives for the rounded corners*
1,1,$1+$1,$2,$3*
1,1,$1+$1,$4,$5*
1,1,$1+$1,$6,$7*
1,1,$1+$1,$8,$9*
0 Add four rect primitives between the rounded corners*
20,1,$1+$1,$2,$3,$4,$5,0*
20,1,$1+$1,$4,$5,$6,$7,0*
20,1,$1+$1,$6,$7,$8,$9,0*
20,1,$1+$1,$8,$9,$2,$3,0*%
G04 Aperture macros list end*
%ADD10C,0.120000*%
%ADD11C,0.150000*%
%ADD12R,1.700000X1.700000*%
%ADD13O,1.700000X1.700000*%
%ADD14C,0.325000*%
%ADD15RoundRect,0.200000X0.200000X0.275000X-0.200000X0.275000X-0.200000X-0.275000X0.200000X-0.275000X0*%
%ADD16RoundRect,0.200000X-0.275000X0.200000X-0.275000X-0.200000X0.275000X-0.200000X0.275000X0.200000X0*%
%ADD17RoundRect,0.218750X-0.218750X-0.256250X0.218750X-0.256250X0.218750X0.256250X-0.218750X0.256250X0*%
%ADD18RoundRect,0.225000X0.250000X-0.225000X0.250000X0.225000X-0.250000X0.225000X-0.250000X-0.225000X0*%
%ADD19RoundRect,0.200000X0.275000X-0.200000X0.275000X0.200000X-0.275000X0.200000X-0.275000X-0.200000X0*%
%ADD20R,0.650000X1.700000*%
%ADD21RoundRect,0.250000X0.250000X0.475000X-0.250000X0.475000X-0.250000X-0.475000X0.250000X-0.475000X0*%
G04 APERTURE END LIST*
D10*
X29790000Y-43170000D02*
X29790000Y-45830000D01*
X34930000Y-43170000D02*
X29790000Y-43170000D01*
X34930000Y-43170000D02*
X34930000Y-45830000D01*
X34930000Y-45830000D02*
X29790000Y-45830000D01*
X36200000Y-43170000D02*
X37530000Y-43170000D01*
X37530000Y-43170000D02*
X37530000Y-44500000D01*
X29790000Y-51730000D02*
X29790000Y-50400000D01*
X31120000Y-51730000D02*
X29790000Y-51730000D01*
X32390000Y-49070000D02*
X37530000Y-49070000D01*
X32390000Y-51730000D02*
X32390000Y-49070000D01*
X32390000Y-51730000D02*
X37530000Y-51730000D01*
X37530000Y-51730000D02*
X37530000Y-49070000D01*
X48970000Y-48630000D02*
X48970000Y-43490000D01*
X51630000Y-43490000D02*
X48970000Y-43490000D01*
X51630000Y-48630000D02*
X48970000Y-48630000D01*
X51630000Y-48630000D02*
X51630000Y-43490000D01*
X51630000Y-49900000D02*
X51630000Y-51230000D01*
X51630000Y-51230000D02*
X50300000Y-51230000D01*
X45327500Y-50372500D02*
X45327500Y-48627500D01*
X45327500Y-50372500D02*
X47252500Y-50372500D01*
X47572500Y-48627500D02*
X45327500Y-48627500D01*
X47572500Y-50052500D02*
X47572500Y-48627500D01*
X47572500Y-50872500D02*
X47572500Y-50372500D01*
X48072500Y-50372500D01*
X47572500Y-50872500D01*
G36*
X47572500Y-50872500D02*
G01*
X47572500Y-50372500D01*
X48072500Y-50372500D01*
X47572500Y-50872500D01*
G37*
X35612258Y-46877500D02*
X35137742Y-46877500D01*
X35612258Y-47922500D02*
X35137742Y-47922500D01*
X47177500Y-46062742D02*
X47177500Y-46537258D01*
X48222500Y-46062742D02*
X48222500Y-46537258D01*
X30890000Y-46665000D02*
X30890000Y-48135000D01*
X30890000Y-48135000D02*
X33175000Y-48135000D01*
X33175000Y-46665000D02*
X30890000Y-46665000D01*
X45690000Y-46440580D02*
X45690000Y-46159420D01*
X46710000Y-46440580D02*
X46710000Y-46159420D01*
X44177500Y-46537258D02*
X44177500Y-46062742D01*
X45222500Y-46537258D02*
X45222500Y-46062742D01*
D11*
X38240000Y-44700000D02*
X38445000Y-44700000D01*
X38240000Y-50200000D02*
X38240000Y-44700000D01*
X38240000Y-50200000D02*
X38445000Y-50200000D01*
X43750000Y-44700000D02*
X43545000Y-44700000D01*
X43750000Y-50200000D02*
X43545000Y-50200000D01*
X43750000Y-50200000D02*
X43750000Y-44700000D01*
D10*
X38495000Y-50750000D02*
X38165000Y-50990000D01*
X38165000Y-50510000D01*
X38495000Y-50750000D01*
G36*
X38495000Y-50750000D02*
G01*
X38165000Y-50990000D01*
X38165000Y-50510000D01*
X38495000Y-50750000D01*
G37*
X46461252Y-42965000D02*
X45938748Y-42965000D01*
X46461252Y-44435000D02*
X45938748Y-44435000D01*
%LPC*%
D12*
X36200000Y-44500000D03*
D13*
X33660000Y-44500000D03*
X31120000Y-44500000D03*
D12*
X31120000Y-50400000D03*
D13*
X33660000Y-50400000D03*
X36200000Y-50400000D03*
D12*
X50300000Y-49900000D03*
D13*
X50300000Y-47360000D03*
X50300000Y-44820000D03*
D14*
X47200000Y-49000000D03*
X47200000Y-49500000D03*
X47200000Y-50000000D03*
X46700000Y-49000000D03*
X46700000Y-50000000D03*
X46200000Y-49000000D03*
X46200000Y-50000000D03*
X45700000Y-49000000D03*
X45700000Y-49500000D03*
X45700000Y-50000000D03*
D15*
X36200000Y-47400000D03*
X34550000Y-47400000D03*
D16*
X47700000Y-45475000D03*
X47700000Y-47125000D03*
D17*
X31587500Y-47400000D03*
X33162500Y-47400000D03*
D18*
X46200000Y-47075000D03*
X46200000Y-45525000D03*
D19*
X44700000Y-47125000D03*
X44700000Y-45475000D03*
D20*
X39090000Y-51100000D03*
X40360000Y-51100000D03*
X41630000Y-51100000D03*
X42900000Y-51100000D03*
X42900000Y-43800000D03*
X41630000Y-43800000D03*
X40360000Y-43800000D03*
X39090000Y-43800000D03*
D21*
X47150000Y-43700000D03*
X45250000Y-43700000D03*
%LPD*%
M02*
